. 
  
http://www.torrenting.com/        :     Greatest Movie Tracker on The Net!!!
 
http://www.Torrenting.com          :     Once & For all ;)


               www . Torrenting . Com 

(((((((((((((= Enjoy No RAR releases =))))))))))))))))))))


...................................NFO:....................................

.[img]http://img864.imageshack.us/img864/1990/hitlistyxl.jpg[/img]

[color=blue][size=5][b]The.Hit.List.2011.BDRip.XVID.AC3.HQ.Hive-CM8[/b][/size][/color]


[b]Thx Hive

CM8 Doing It Right The First Time :D


Why download a touched up rip of a rip BRrip
Get the real deal BDRip

Source Bluray

Video: 720x400 @bitrate 2000 2pass
Audio: DTS to AC3 5.1 @448
Sample: yes included
[/b]


[url]http://www.imdb.com/title/tt1575694/[/url]


General
Complete name                    : The.Hit.List.2011.BDRip.XVID.AC3.HQ.Hive-CM8.avi
Format                           : AVI
Format/Info                      : Audio Video Interleave
File size                        : 1.60 GiB
Duration                         : 1h 30mn
Overall bit rate                 : 2 547 Kbps
Writing application              : Nandub v1.0rc2
Writing library                  : Nandub build 1853/release

Video
ID                               : 0
Format                           : MPEG-4 Visual
Format profile                   : Advanced Simple@L5
Format settings, BVOP            : Yes
Format settings, QPel            : Yes
Format settings, GMC             : No warppoints
Format settings, Matrix          : Default (H.263)
Muxing mode                      : Packed bitstream
Codec ID                         : XVID
Codec ID/Hint                    : XviD
Duration                         : 1h 30mn
Bit rate                         : 2 090 Kbps
Width                            : 720 pixels
Height                           : 400 pixels
Display aspect ratio             : 16:9
Frame rate                       : 23.976 fps
Color space                      : YUV
Chroma subsampling               : 4:2:0
Bit depth                        : 8 bits
Scan type                        : Progressive
Bits/(Pixel*Frame)               : 0.303
Stream size                      : 1.32 GiB (82%)
Writing library                  : XviD 1.2.1 (UTC 2008-12-04)

Audio
ID                               : 1
Format                           : AC-3
Format/Info                      : Audio Coding 3
Mode extension                   : CM (complete main)
Codec ID                         : 2000
Duration                         : 1h 30mn
Bit rate mode                    : Constant
Bit rate                         : 448 Kbps
Channel(s)                       : 6 channels
Channel positions                : Front: L C R, Side: L R, LFE
Sampling rate                    : 48.0 KHz
Bit depth                        : 16 bits
Stream size                      : 289 MiB (18%)
Alignment                        : Split accross interleaves
Interleave, duration             : 42 ms (1.00 video frame)
Interleave, preload duration     : 500 ms


Cuba Gooding Jr. ... 	Jonas Arbor
Cole Hauser	... 	Allan Campbell
Jonathan LaPaglia ... 	Detective Neil McKay
Ginny Weirick	... 	Sydney Campbell
Sean Cook	... 	Brian Felzner
Drew Waters	... 	Mike Dodd
Michael Papajohn ... 	Special Agent Drake Ford


A disgruntled man creates a hit list with a stranger during a drunken night out 
and must then race to try to save those he marked for extermination as the bodies 
begin to pile up and all fingers point to him. 


[img]http://img812.imageshack.us/img812/6458/71297551.png[/img]
[img]http://img580.imageshack.us/img580/5437/hlhl.png[/img]
[img]http://img9.imageshack.us/img9/3997/hlhhlhlhllhl.png[/img]
[img]http://img855.imageshack.us/img855/1804/hlhhllhl.png[/img]
[img]http://img857.imageshack.us/img857/1160/hlhlhl.png[/img]





Greetz

ViSiON,LUSi,SANTi,MAGNET,THC,T0XiCiNK,LKRG,IMAGiNE,WBZ,FLAWL3SS,NOVA
Vik,Rapeseed,D2U,SAFC,goldadvance,MEMORY100,KaN1vE,Unevano,Pinnz,Wayne,Mr Hive
and all P2P groups 
Great Work Guys :D

CM8@hushmail.com